<mxfile host="app.diagrams.net" agent="Mozilla/5.0 (Windows NT 10.0; Win64; x64) AppleWebKit/537.36 (KHTML, like Gecko) Chrome/138.0.0.0 Safari/537.36" version="28.0.6">
  <diagram name="Página-1" id="GvXXKSNRcuP7JfTzqSxy">
    <mxGraphModel grid="1" page="1" gridSize="10" guides="1" tooltips="1" connect="1" arrows="1" fold="1" pageScale="1" pageWidth="827" pageHeight="1169" math="0" shadow="0">
      <root>
        <mxCell id="0" />
        <mxCell id="1" parent="0" />
        <mxCell id="qR350ktHw3m1VdkChVLU-1" value="Dispositivos Usuario" style="verticalAlign=top;align=left;spacingTop=8;spacingLeft=2;spacingRight=12;shape=cube;size=10;direction=south;fontStyle=4;html=1;whiteSpace=wrap;" vertex="1" parent="1">
          <mxGeometry x="310" y="25" width="180" height="120" as="geometry" />
        </mxCell>
        <mxCell id="qR350ktHw3m1VdkChVLU-16" style="edgeStyle=orthogonalEdgeStyle;rounded=0;orthogonalLoop=1;jettySize=auto;html=1;exitX=1;exitY=0.25;exitDx=0;exitDy=0;" edge="1" parent="1" source="qR350ktHw3m1VdkChVLU-2" target="qR350ktHw3m1VdkChVLU-10">
          <mxGeometry relative="1" as="geometry">
            <mxPoint x="630" y="95" as="targetPoint" />
          </mxGeometry>
        </mxCell>
        <mxCell id="qR350ktHw3m1VdkChVLU-17" value="&amp;lt;&amp;lt;HTTP&amp;gt;&amp;gt;" style="edgeLabel;html=1;align=center;verticalAlign=middle;resizable=0;points=[];" vertex="1" connectable="0" parent="qR350ktHw3m1VdkChVLU-16">
          <mxGeometry x="-0.0482" relative="1" as="geometry">
            <mxPoint as="offset" />
          </mxGeometry>
        </mxCell>
        <mxCell id="qR350ktHw3m1VdkChVLU-51" style="edgeStyle=orthogonalEdgeStyle;rounded=0;orthogonalLoop=1;jettySize=auto;html=1;entryX=0.5;entryY=0;entryDx=0;entryDy=0;exitX=1;exitY=0.75;exitDx=0;exitDy=0;" edge="1" parent="1" source="qR350ktHw3m1VdkChVLU-2" target="qR350ktHw3m1VdkChVLU-45">
          <mxGeometry relative="1" as="geometry">
            <mxPoint x="1261.8180847167969" y="280" as="targetPoint" />
          </mxGeometry>
        </mxCell>
        <mxCell id="qR350ktHw3m1VdkChVLU-52" value="&amp;lt;&amp;lt;HTTP&amp;gt;&amp;gt;" style="edgeLabel;html=1;align=center;verticalAlign=middle;resizable=0;points=[];" vertex="1" connectable="0" parent="qR350ktHw3m1VdkChVLU-51">
          <mxGeometry x="-0.3498" relative="1" as="geometry">
            <mxPoint x="1" as="offset" />
          </mxGeometry>
        </mxCell>
        <mxCell id="qR350ktHw3m1VdkChVLU-70" style="edgeStyle=orthogonalEdgeStyle;rounded=0;orthogonalLoop=1;jettySize=auto;html=1;entryX=0;entryY=0;entryDx=0;entryDy=250;entryPerimeter=0;" edge="1" parent="1" source="qR350ktHw3m1VdkChVLU-2" target="qR350ktHw3m1VdkChVLU-65">
          <mxGeometry relative="1" as="geometry">
            <mxPoint x="2271.530890213816" y="410" as="targetPoint" />
          </mxGeometry>
        </mxCell>
        <mxCell id="qR350ktHw3m1VdkChVLU-71" value="&amp;lt;&amp;lt;HTTP&amp;gt;&amp;gt;" style="edgeLabel;html=1;align=center;verticalAlign=middle;resizable=0;points=[];" vertex="1" connectable="0" parent="qR350ktHw3m1VdkChVLU-70">
          <mxGeometry x="0.0348" y="-3" relative="1" as="geometry">
            <mxPoint x="1" as="offset" />
          </mxGeometry>
        </mxCell>
        <mxCell id="qR350ktHw3m1VdkChVLU-2" value="&amp;lt;&amp;lt;artifact&amp;gt;&amp;gt;&lt;br&gt;Navegador Web" style="html=1;whiteSpace=wrap;" vertex="1" parent="1">
          <mxGeometry x="345" y="70" width="110" height="50" as="geometry" />
        </mxCell>
        <mxCell id="qR350ktHw3m1VdkChVLU-9" value="Servidor Web" style="verticalAlign=top;align=left;spacingTop=8;spacingLeft=2;spacingRight=12;shape=cube;size=10;direction=south;fontStyle=4;html=1;whiteSpace=wrap;" vertex="1" parent="1">
          <mxGeometry x="647" y="20" width="180" height="120" as="geometry" />
        </mxCell>
        <mxCell id="qR350ktHw3m1VdkChVLU-21" style="edgeStyle=orthogonalEdgeStyle;rounded=0;orthogonalLoop=1;jettySize=auto;html=1;entryX=0.5;entryY=0;entryDx=0;entryDy=0;" edge="1" parent="1" source="qR350ktHw3m1VdkChVLU-10" target="qR350ktHw3m1VdkChVLU-14">
          <mxGeometry relative="1" as="geometry" />
        </mxCell>
        <mxCell id="qR350ktHw3m1VdkChVLU-22" value="&amp;lt;&amp;lt;WSGI&amp;gt;&amp;gt;" style="edgeLabel;html=1;align=center;verticalAlign=middle;resizable=0;points=[];" vertex="1" connectable="0" parent="qR350ktHw3m1VdkChVLU-21">
          <mxGeometry x="-0.1543" relative="1" as="geometry">
            <mxPoint as="offset" />
          </mxGeometry>
        </mxCell>
        <mxCell id="qR350ktHw3m1VdkChVLU-39" style="edgeStyle=orthogonalEdgeStyle;rounded=0;orthogonalLoop=1;jettySize=auto;html=1;entryX=0;entryY=0.5;entryDx=0;entryDy=0;" edge="1" parent="1" source="qR350ktHw3m1VdkChVLU-10" target="qR350ktHw3m1VdkChVLU-35">
          <mxGeometry relative="1" as="geometry">
            <Array as="points">
              <mxPoint x="630" y="85" />
              <mxPoint x="630" y="765" />
            </Array>
          </mxGeometry>
        </mxCell>
        <mxCell id="qR350ktHw3m1VdkChVLU-40" value="&amp;lt;&amp;lt;serves&amp;gt;&amp;gt;" style="edgeLabel;html=1;align=center;verticalAlign=middle;resizable=0;points=[];" vertex="1" connectable="0" parent="qR350ktHw3m1VdkChVLU-39">
          <mxGeometry x="-0.1733" y="-4" relative="1" as="geometry">
            <mxPoint x="4" y="35" as="offset" />
          </mxGeometry>
        </mxCell>
        <mxCell id="qR350ktHw3m1VdkChVLU-10" value="&amp;lt;&amp;lt;artifact&amp;gt;&amp;gt;&lt;br&gt;Servidor HTTP&amp;nbsp;" style="html=1;whiteSpace=wrap;" vertex="1" parent="1">
          <mxGeometry x="682" y="60" width="110" height="50" as="geometry" />
        </mxCell>
        <mxCell id="qR350ktHw3m1VdkChVLU-13" value="Servidor de Aplicación" style="verticalAlign=top;align=left;spacingTop=8;spacingLeft=2;spacingRight=12;shape=cube;size=10;direction=south;fontStyle=4;html=1;whiteSpace=wrap;" vertex="1" parent="1">
          <mxGeometry x="647" y="280" width="180" height="100" as="geometry" />
        </mxCell>
        <mxCell id="qR350ktHw3m1VdkChVLU-18" style="edgeStyle=orthogonalEdgeStyle;rounded=0;orthogonalLoop=1;jettySize=auto;html=1;entryX=0;entryY=0.5;entryDx=0;entryDy=0;" edge="1" parent="1" source="qR350ktHw3m1VdkChVLU-14" target="qR350ktHw3m1VdkChVLU-25">
          <mxGeometry relative="1" as="geometry">
            <mxPoint x="955" y="400" as="targetPoint" />
            <Array as="points" />
          </mxGeometry>
        </mxCell>
        <mxCell id="qR350ktHw3m1VdkChVLU-19" value="&amp;lt;&amp;lt;SQL&amp;gt;&amp;gt;" style="edgeLabel;html=1;align=center;verticalAlign=middle;resizable=0;points=[];" vertex="1" connectable="0" parent="qR350ktHw3m1VdkChVLU-18">
          <mxGeometry x="-0.1203" y="3" relative="1" as="geometry">
            <mxPoint x="-3" as="offset" />
          </mxGeometry>
        </mxCell>
        <mxCell id="qR350ktHw3m1VdkChVLU-14" value="&amp;lt;&amp;lt;artifact&amp;gt;&amp;gt;&lt;br&gt;Python&amp;nbsp;" style="html=1;whiteSpace=wrap;" vertex="1" parent="1">
          <mxGeometry x="682" y="315" width="110" height="50" as="geometry" />
        </mxCell>
        <mxCell id="qR350ktHw3m1VdkChVLU-24" value="Base de Datos" style="verticalAlign=top;align=left;spacingTop=8;spacingLeft=2;spacingRight=12;shape=cube;size=10;direction=south;fontStyle=4;html=1;whiteSpace=wrap;" vertex="1" parent="1">
          <mxGeometry x="960" y="280" width="180" height="120" as="geometry" />
        </mxCell>
        <mxCell id="qR350ktHw3m1VdkChVLU-25" value="&amp;lt;&amp;lt;artifact&amp;gt;&amp;gt;&lt;br&gt;MySQL" style="html=1;whiteSpace=wrap;" vertex="1" parent="1">
          <mxGeometry x="995" y="315" width="110" height="50" as="geometry" />
        </mxCell>
        <mxCell id="qR350ktHw3m1VdkChVLU-27" value="Servicios del Sistema" style="verticalAlign=top;align=left;spacingTop=8;spacingLeft=2;spacingRight=12;shape=cube;size=10;direction=south;fontStyle=4;html=1;whiteSpace=wrap;" vertex="1" parent="1">
          <mxGeometry x="905" y="480" width="290" height="140" as="geometry" />
        </mxCell>
        <mxCell id="qR350ktHw3m1VdkChVLU-28" value="&amp;lt;&amp;lt;artifact&amp;gt;&amp;gt;&lt;br&gt;Notificaciones Internas&amp;nbsp;" style="html=1;whiteSpace=wrap;" vertex="1" parent="1">
          <mxGeometry x="925" y="540" width="110" height="50" as="geometry" />
        </mxCell>
        <mxCell id="qR350ktHw3m1VdkChVLU-29" value="&amp;lt;&amp;lt;artifact&amp;gt;&amp;gt;&lt;br&gt;Encuestas" style="html=1;whiteSpace=wrap;" vertex="1" parent="1">
          <mxGeometry x="1060" y="540" width="110" height="50" as="geometry" />
        </mxCell>
        <mxCell id="qR350ktHw3m1VdkChVLU-30" style="edgeStyle=orthogonalEdgeStyle;rounded=0;orthogonalLoop=1;jettySize=auto;html=1;entryX=0;entryY=0;entryDx=120;entryDy=95;entryPerimeter=0;" edge="1" parent="1" source="qR350ktHw3m1VdkChVLU-28" target="qR350ktHw3m1VdkChVLU-24">
          <mxGeometry relative="1" as="geometry" />
        </mxCell>
        <mxCell id="qR350ktHw3m1VdkChVLU-31" style="edgeStyle=orthogonalEdgeStyle;rounded=0;orthogonalLoop=1;jettySize=auto;html=1;entryX=0;entryY=0;entryDx=120;entryDy=95;entryPerimeter=0;" edge="1" parent="1" source="qR350ktHw3m1VdkChVLU-29" target="qR350ktHw3m1VdkChVLU-24">
          <mxGeometry relative="1" as="geometry" />
        </mxCell>
        <mxCell id="qR350ktHw3m1VdkChVLU-32" value="&amp;lt;&amp;lt;SQL&amp;gt;&amp;gt;" style="edgeLabel;html=1;align=center;verticalAlign=middle;resizable=0;points=[];" vertex="1" connectable="0" parent="qR350ktHw3m1VdkChVLU-31">
          <mxGeometry x="0.6545" relative="1" as="geometry">
            <mxPoint x="-65" y="84" as="offset" />
          </mxGeometry>
        </mxCell>
        <mxCell id="qR350ktHw3m1VdkChVLU-33" value="&amp;lt;&amp;lt;SQL&amp;gt;&amp;gt;" style="edgeLabel;html=1;align=center;verticalAlign=middle;resizable=0;points=[];" vertex="1" connectable="0" parent="1">
          <mxGeometry x="1035" y="540" as="geometry">
            <mxPoint x="82" y="-20" as="offset" />
          </mxGeometry>
        </mxCell>
        <mxCell id="qR350ktHw3m1VdkChVLU-34" value="Servicios de Archivos" style="verticalAlign=top;align=left;spacingTop=8;spacingLeft=2;spacingRight=12;shape=cube;size=10;direction=south;fontStyle=4;html=1;whiteSpace=wrap;" vertex="1" parent="1">
          <mxGeometry x="832.5" y="680" width="435" height="140" as="geometry" />
        </mxCell>
        <mxCell id="qR350ktHw3m1VdkChVLU-35" value="&amp;lt;&amp;lt;artifact&amp;gt;&amp;gt;&lt;br&gt;Archivos Estaticos&lt;br&gt;CSS/JS/IMG" style="html=1;whiteSpace=wrap;" vertex="1" parent="1">
          <mxGeometry x="847.5" y="740" width="110" height="50" as="geometry" />
        </mxCell>
        <mxCell id="qR350ktHw3m1VdkChVLU-36" value="&amp;lt;&amp;lt;artifact&amp;gt;&amp;gt;&lt;br&gt;Contratos PDF" style="html=1;whiteSpace=wrap;" vertex="1" parent="1">
          <mxGeometry x="987.5" y="740" width="110" height="50" as="geometry" />
        </mxCell>
        <mxCell id="qR350ktHw3m1VdkChVLU-38" value="&amp;lt;&amp;lt;artifact&amp;gt;&amp;gt;&lt;br&gt;Galeria Multimedia" style="html=1;whiteSpace=wrap;" vertex="1" parent="1">
          <mxGeometry x="1127.5" y="740" width="120" height="50" as="geometry" />
        </mxCell>
        <mxCell id="qR350ktHw3m1VdkChVLU-41" value="Servicios Externos" style="verticalAlign=top;align=left;spacingTop=8;spacingLeft=2;spacingRight=12;shape=cube;size=10;direction=south;fontStyle=4;html=1;whiteSpace=wrap;" vertex="1" parent="1">
          <mxGeometry x="1810" y="880" width="180" height="120" as="geometry" />
        </mxCell>
        <mxCell id="qR350ktHw3m1VdkChVLU-42" value="&amp;lt;&amp;lt;artifact&amp;gt;&amp;gt;&lt;br&gt;API Google Calendar" style="html=1;whiteSpace=wrap;" vertex="1" parent="1">
          <mxGeometry x="1845" y="920" width="110" height="50" as="geometry" />
        </mxCell>
        <mxCell id="qR350ktHw3m1VdkChVLU-43" value="Modulo Usuarios" style="verticalAlign=top;align=left;spacingTop=8;spacingLeft=2;spacingRight=12;shape=cube;size=10;direction=south;fontStyle=4;html=1;whiteSpace=wrap;" vertex="1" parent="1">
          <mxGeometry x="1370" y="680" width="350" height="140" as="geometry" />
        </mxCell>
        <mxCell id="qR350ktHw3m1VdkChVLU-61" style="edgeStyle=orthogonalEdgeStyle;rounded=0;orthogonalLoop=1;jettySize=auto;html=1;entryX=1.003;entryY=0.317;entryDx=0;entryDy=0;entryPerimeter=0;" edge="1" parent="1" source="qR350ktHw3m1VdkChVLU-44" target="qR350ktHw3m1VdkChVLU-25">
          <mxGeometry relative="1" as="geometry">
            <Array as="points">
              <mxPoint x="1460" y="330" />
              <mxPoint x="1105" y="330" />
            </Array>
          </mxGeometry>
        </mxCell>
        <mxCell id="qR350ktHw3m1VdkChVLU-63" value="&amp;lt;&amp;lt;SQL&amp;gt;&amp;gt;" style="edgeLabel;html=1;align=center;verticalAlign=middle;resizable=0;points=[];" vertex="1" connectable="0" parent="qR350ktHw3m1VdkChVLU-61">
          <mxGeometry x="0.5371" y="-2" relative="1" as="geometry">
            <mxPoint as="offset" />
          </mxGeometry>
        </mxCell>
        <mxCell id="qR350ktHw3m1VdkChVLU-80" style="edgeStyle=orthogonalEdgeStyle;rounded=0;orthogonalLoop=1;jettySize=auto;html=1;entryX=1;entryY=0.5;entryDx=0;entryDy=0;" edge="1" parent="1" source="qR350ktHw3m1VdkChVLU-44" target="qR350ktHw3m1VdkChVLU-29">
          <mxGeometry relative="1" as="geometry">
            <Array as="points">
              <mxPoint x="1460" y="565" />
            </Array>
          </mxGeometry>
        </mxCell>
        <mxCell id="qR350ktHw3m1VdkChVLU-81" value="&amp;lt;&amp;lt;invoca&amp;gt;&amp;gt;" style="edgeLabel;html=1;align=center;verticalAlign=middle;resizable=0;points=[];" vertex="1" connectable="0" parent="qR350ktHw3m1VdkChVLU-80">
          <mxGeometry x="0.3563" y="-4" relative="1" as="geometry">
            <mxPoint y="4" as="offset" />
          </mxGeometry>
        </mxCell>
        <mxCell id="qR350ktHw3m1VdkChVLU-82" style="rounded=0;orthogonalLoop=1;jettySize=auto;html=1;entryX=0;entryY=0.25;entryDx=0;entryDy=0;exitX=1;exitY=0.25;exitDx=0;exitDy=0;" edge="1" parent="1" source="qR350ktHw3m1VdkChVLU-44" target="qR350ktHw3m1VdkChVLU-45">
          <mxGeometry relative="1" as="geometry" />
        </mxCell>
        <mxCell id="qR350ktHw3m1VdkChVLU-83" value="&lt;font style=&quot;font-size: 10px;&quot;&gt;&amp;lt;&amp;lt;access&amp;gt;&amp;gt;&lt;/font&gt;" style="edgeLabel;html=1;align=center;verticalAlign=middle;resizable=0;points=[];" vertex="1" connectable="0" parent="qR350ktHw3m1VdkChVLU-82">
          <mxGeometry x="-0.1152" y="-1" relative="1" as="geometry">
            <mxPoint as="offset" />
          </mxGeometry>
        </mxCell>
        <mxCell id="qR350ktHw3m1VdkChVLU-93" style="edgeStyle=orthogonalEdgeStyle;rounded=0;orthogonalLoop=1;jettySize=auto;html=1;entryX=0.75;entryY=1;entryDx=0;entryDy=0;" edge="1" parent="1" source="qR350ktHw3m1VdkChVLU-44" target="qR350ktHw3m1VdkChVLU-28">
          <mxGeometry relative="1" as="geometry">
            <Array as="points">
              <mxPoint x="1440" y="640" />
              <mxPoint x="1008" y="640" />
            </Array>
          </mxGeometry>
        </mxCell>
        <mxCell id="qR350ktHw3m1VdkChVLU-94" value="&amp;lt;&amp;lt;send&amp;gt;&amp;gt;" style="edgeLabel;html=1;align=center;verticalAlign=middle;resizable=0;points=[];" vertex="1" connectable="0" parent="qR350ktHw3m1VdkChVLU-93">
          <mxGeometry x="0.0859" y="-5" relative="1" as="geometry">
            <mxPoint as="offset" />
          </mxGeometry>
        </mxCell>
        <mxCell id="qR350ktHw3m1VdkChVLU-44" value="&amp;lt;&amp;lt;artifact&amp;gt;&amp;gt;&lt;br&gt;Gestion de Usuarios" style="html=1;whiteSpace=wrap;" vertex="1" parent="1">
          <mxGeometry x="1380" y="738.44" width="120" height="50" as="geometry" />
        </mxCell>
        <mxCell id="qR350ktHw3m1VdkChVLU-48" style="edgeStyle=orthogonalEdgeStyle;rounded=0;orthogonalLoop=1;jettySize=auto;html=1;entryX=0.5;entryY=1;entryDx=0;entryDy=0;" edge="1" parent="1" source="qR350ktHw3m1VdkChVLU-45" target="qR350ktHw3m1VdkChVLU-28">
          <mxGeometry relative="1" as="geometry">
            <Array as="points">
              <mxPoint x="1630" y="660" />
              <mxPoint x="980" y="660" />
            </Array>
          </mxGeometry>
        </mxCell>
        <mxCell id="qR350ktHw3m1VdkChVLU-49" value="&amp;lt;&amp;lt;send&amp;gt;&amp;gt;" style="edgeLabel;html=1;align=center;verticalAlign=middle;resizable=0;points=[];" vertex="1" connectable="0" parent="qR350ktHw3m1VdkChVLU-48">
          <mxGeometry x="0.029" y="2" relative="1" as="geometry">
            <mxPoint x="18" as="offset" />
          </mxGeometry>
        </mxCell>
        <mxCell id="qR350ktHw3m1VdkChVLU-62" style="edgeStyle=orthogonalEdgeStyle;rounded=0;orthogonalLoop=1;jettySize=auto;html=1;entryX=1;entryY=0.75;entryDx=0;entryDy=0;" edge="1" parent="1" source="qR350ktHw3m1VdkChVLU-45" target="qR350ktHw3m1VdkChVLU-25">
          <mxGeometry relative="1" as="geometry">
            <Array as="points">
              <mxPoint x="1600" y="352" />
            </Array>
          </mxGeometry>
        </mxCell>
        <mxCell id="qR350ktHw3m1VdkChVLU-64" value="&amp;lt;&amp;lt;SQL&amp;gt;&amp;gt;" style="edgeLabel;html=1;align=center;verticalAlign=middle;resizable=0;points=[];" vertex="1" connectable="0" parent="qR350ktHw3m1VdkChVLU-62">
          <mxGeometry x="0.0374" y="1" relative="1" as="geometry">
            <mxPoint as="offset" />
          </mxGeometry>
        </mxCell>
        <mxCell id="qR350ktHw3m1VdkChVLU-85" style="rounded=0;orthogonalLoop=1;jettySize=auto;html=1;entryX=1;entryY=0.75;entryDx=0;entryDy=0;" edge="1" parent="1" source="qR350ktHw3m1VdkChVLU-45" target="qR350ktHw3m1VdkChVLU-44">
          <mxGeometry relative="1" as="geometry" />
        </mxCell>
        <mxCell id="qR350ktHw3m1VdkChVLU-86" value="&lt;font style=&quot;font-size: 10px;&quot;&gt;&amp;lt;&amp;lt;query&amp;gt;&amp;gt;&lt;/font&gt;" style="edgeLabel;html=1;align=center;verticalAlign=middle;resizable=0;points=[];" vertex="1" connectable="0" parent="qR350ktHw3m1VdkChVLU-85">
          <mxGeometry x="0.0045" y="-2" relative="1" as="geometry">
            <mxPoint as="offset" />
          </mxGeometry>
        </mxCell>
        <mxCell id="qR350ktHw3m1VdkChVLU-45" value="&amp;lt;&amp;lt;artifact&amp;gt;&amp;gt;&lt;br&gt;Autenticaciòn&lt;br&gt;Login/Logout/Control Permisos" style="html=1;whiteSpace=wrap;" vertex="1" parent="1">
          <mxGeometry x="1570" y="727.5" width="120" height="75" as="geometry" />
        </mxCell>
        <mxCell id="qR350ktHw3m1VdkChVLU-57" value="Modulo Eventos" style="verticalAlign=top;align=left;spacingTop=8;spacingLeft=2;spacingRight=12;shape=cube;size=10;direction=south;fontStyle=4;html=1;whiteSpace=wrap;" vertex="1" parent="1">
          <mxGeometry x="1810" y="680" width="350" height="140" as="geometry" />
        </mxCell>
        <mxCell id="qR350ktHw3m1VdkChVLU-60" style="edgeStyle=orthogonalEdgeStyle;rounded=0;orthogonalLoop=1;jettySize=auto;html=1;entryX=0.5;entryY=0;entryDx=0;entryDy=0;" edge="1" parent="1" source="qR350ktHw3m1VdkChVLU-58" target="qR350ktHw3m1VdkChVLU-42">
          <mxGeometry relative="1" as="geometry" />
        </mxCell>
        <mxCell id="qR350ktHw3m1VdkChVLU-77" value="&amp;lt;&amp;lt;API&amp;gt;&amp;gt;" style="edgeLabel;html=1;align=center;verticalAlign=middle;resizable=0;points=[];" vertex="1" connectable="0" parent="qR350ktHw3m1VdkChVLU-60">
          <mxGeometry x="-0.2811" relative="1" as="geometry">
            <mxPoint y="13" as="offset" />
          </mxGeometry>
        </mxCell>
        <mxCell id="qR350ktHw3m1VdkChVLU-72" style="edgeStyle=orthogonalEdgeStyle;rounded=0;orthogonalLoop=1;jettySize=auto;html=1;entryX=1;entryY=0.5;entryDx=0;entryDy=0;" edge="1" parent="1" source="qR350ktHw3m1VdkChVLU-58" target="qR350ktHw3m1VdkChVLU-25">
          <mxGeometry relative="1" as="geometry">
            <Array as="points">
              <mxPoint x="1900" y="340" />
            </Array>
          </mxGeometry>
        </mxCell>
        <mxCell id="qR350ktHw3m1VdkChVLU-73" value="&amp;lt;&amp;lt;SQL&amp;gt;&amp;gt;" style="edgeLabel;html=1;align=center;verticalAlign=middle;resizable=0;points=[];" vertex="1" connectable="0" parent="qR350ktHw3m1VdkChVLU-72">
          <mxGeometry x="-0.0122" y="-2" relative="1" as="geometry">
            <mxPoint as="offset" />
          </mxGeometry>
        </mxCell>
        <mxCell id="qR350ktHw3m1VdkChVLU-78" style="edgeStyle=orthogonalEdgeStyle;rounded=0;orthogonalLoop=1;jettySize=auto;html=1;entryX=0.5;entryY=1;entryDx=0;entryDy=0;" edge="1" parent="1" source="qR350ktHw3m1VdkChVLU-58" target="qR350ktHw3m1VdkChVLU-44">
          <mxGeometry relative="1" as="geometry">
            <Array as="points">
              <mxPoint x="1900" y="830" />
              <mxPoint x="1440" y="830" />
            </Array>
          </mxGeometry>
        </mxCell>
        <mxCell id="qR350ktHw3m1VdkChVLU-79" value="&amp;lt;&amp;lt;access&amp;gt;&amp;gt;" style="edgeLabel;html=1;align=center;verticalAlign=middle;resizable=0;points=[];" vertex="1" connectable="0" parent="qR350ktHw3m1VdkChVLU-78">
          <mxGeometry x="0.0038" y="2" relative="1" as="geometry">
            <mxPoint as="offset" />
          </mxGeometry>
        </mxCell>
        <mxCell id="qR350ktHw3m1VdkChVLU-58" value="&amp;lt;&amp;lt;artifact&amp;gt;&amp;gt;&lt;br&gt;Gestion de Eventos" style="html=1;whiteSpace=wrap;" vertex="1" parent="1">
          <mxGeometry x="1840" y="740" width="120" height="50" as="geometry" />
        </mxCell>
        <mxCell id="qR350ktHw3m1VdkChVLU-74" style="edgeStyle=orthogonalEdgeStyle;rounded=0;orthogonalLoop=1;jettySize=auto;html=1;entryX=1;entryY=1;entryDx=0;entryDy=0;" edge="1" parent="1" source="qR350ktHw3m1VdkChVLU-59" target="qR350ktHw3m1VdkChVLU-25">
          <mxGeometry relative="1" as="geometry">
            <Array as="points">
              <mxPoint x="2068" y="365" />
            </Array>
          </mxGeometry>
        </mxCell>
        <mxCell id="qR350ktHw3m1VdkChVLU-76" value="&amp;lt;&amp;lt;SQL&amp;gt;&amp;gt;" style="edgeLabel;html=1;align=center;verticalAlign=middle;resizable=0;points=[];" vertex="1" connectable="0" parent="qR350ktHw3m1VdkChVLU-74">
          <mxGeometry x="-0.3089" y="5" relative="1" as="geometry">
            <mxPoint as="offset" />
          </mxGeometry>
        </mxCell>
        <mxCell id="qR350ktHw3m1VdkChVLU-59" value="&amp;lt;&amp;lt;artifact&amp;gt;&amp;gt;&lt;br&gt;Gestion de Recursos" style="html=1;whiteSpace=wrap;" vertex="1" parent="1">
          <mxGeometry x="2008" y="738.4399999999999" width="120" height="53.12" as="geometry" />
        </mxCell>
        <mxCell id="qR350ktHw3m1VdkChVLU-65" value="Modulo Contenido" style="verticalAlign=top;align=left;spacingTop=8;spacingLeft=2;spacingRight=12;shape=cube;size=10;direction=south;fontStyle=4;html=1;whiteSpace=wrap;" vertex="1" parent="1">
          <mxGeometry x="2240" y="680" width="510" height="140" as="geometry" />
        </mxCell>
        <mxCell id="qR350ktHw3m1VdkChVLU-95" style="edgeStyle=orthogonalEdgeStyle;rounded=0;orthogonalLoop=1;jettySize=auto;html=1;entryX=0.5;entryY=1;entryDx=0;entryDy=0;" edge="1" parent="1" source="qR350ktHw3m1VdkChVLU-66" target="qR350ktHw3m1VdkChVLU-38">
          <mxGeometry relative="1" as="geometry">
            <Array as="points">
              <mxPoint x="2330" y="870" />
              <mxPoint x="1188" y="870" />
            </Array>
          </mxGeometry>
        </mxCell>
        <mxCell id="qR350ktHw3m1VdkChVLU-96" value="&amp;lt;&amp;lt;file access&amp;gt;&amp;gt;" style="edgeLabel;html=1;align=center;verticalAlign=middle;resizable=0;points=[];" vertex="1" connectable="0" parent="qR350ktHw3m1VdkChVLU-95">
          <mxGeometry x="0.178" y="-2" relative="1" as="geometry">
            <mxPoint x="1" as="offset" />
          </mxGeometry>
        </mxCell>
        <mxCell id="qR350ktHw3m1VdkChVLU-66" value="&amp;lt;&amp;lt;artifact&amp;gt;&amp;gt;&lt;br&gt;Gestion de Galeria y Comentarios" style="html=1;whiteSpace=wrap;" vertex="1" parent="1">
          <mxGeometry x="2270" y="740" width="120" height="50" as="geometry" />
        </mxCell>
        <mxCell id="qR350ktHw3m1VdkChVLU-97" style="edgeStyle=orthogonalEdgeStyle;rounded=0;orthogonalLoop=1;jettySize=auto;html=1;entryX=0.75;entryY=1;entryDx=0;entryDy=0;" edge="1" parent="1" source="qR350ktHw3m1VdkChVLU-67" target="qR350ktHw3m1VdkChVLU-25">
          <mxGeometry relative="1" as="geometry">
            <Array as="points">
              <mxPoint x="2498" y="440" />
              <mxPoint x="1078" y="440" />
            </Array>
          </mxGeometry>
        </mxCell>
        <mxCell id="qR350ktHw3m1VdkChVLU-101" value="&amp;lt;&amp;lt;SQL&amp;gt;&amp;gt;" style="edgeLabel;html=1;align=center;verticalAlign=middle;resizable=0;points=[];" vertex="1" connectable="0" parent="qR350ktHw3m1VdkChVLU-97">
          <mxGeometry x="-0.3083" y="-1" relative="1" as="geometry">
            <mxPoint as="offset" />
          </mxGeometry>
        </mxCell>
        <mxCell id="qR350ktHw3m1VdkChVLU-104" style="edgeStyle=orthogonalEdgeStyle;rounded=0;orthogonalLoop=1;jettySize=auto;html=1;entryX=1;entryY=0.5;entryDx=0;entryDy=0;" edge="1" parent="1" source="qR350ktHw3m1VdkChVLU-67" target="qR350ktHw3m1VdkChVLU-42">
          <mxGeometry relative="1" as="geometry">
            <Array as="points">
              <mxPoint x="2498" y="945" />
            </Array>
          </mxGeometry>
        </mxCell>
        <mxCell id="qR350ktHw3m1VdkChVLU-105" value="&amp;lt;&amp;lt;API&amp;gt;&amp;gt;" style="edgeLabel;html=1;align=center;verticalAlign=middle;resizable=0;points=[];" vertex="1" connectable="0" parent="qR350ktHw3m1VdkChVLU-104">
          <mxGeometry x="0.2223" y="-4" relative="1" as="geometry">
            <mxPoint y="4" as="offset" />
          </mxGeometry>
        </mxCell>
        <mxCell id="qR350ktHw3m1VdkChVLU-67" value="&amp;lt;&amp;lt;artifact&amp;gt;&amp;gt;&lt;br&gt;Gestion de Solicitudes" style="html=1;whiteSpace=wrap;" vertex="1" parent="1">
          <mxGeometry x="2438" y="738.4399999999999" width="120" height="53.12" as="geometry" />
        </mxCell>
        <mxCell id="qR350ktHw3m1VdkChVLU-102" style="edgeStyle=orthogonalEdgeStyle;rounded=0;orthogonalLoop=1;jettySize=auto;html=1;entryX=0.5;entryY=1;entryDx=0;entryDy=0;" edge="1" parent="1" source="qR350ktHw3m1VdkChVLU-69" target="qR350ktHw3m1VdkChVLU-36">
          <mxGeometry relative="1" as="geometry">
            <Array as="points">
              <mxPoint x="2670" y="1090" />
              <mxPoint x="1043" y="1090" />
            </Array>
          </mxGeometry>
        </mxCell>
        <mxCell id="qR350ktHw3m1VdkChVLU-103" value="&amp;lt;&amp;lt;file read&amp;gt;&amp;gt;" style="edgeLabel;html=1;align=center;verticalAlign=middle;resizable=0;points=[];" vertex="1" connectable="0" parent="qR350ktHw3m1VdkChVLU-102">
          <mxGeometry x="0.0008" y="2" relative="1" as="geometry">
            <mxPoint x="1" as="offset" />
          </mxGeometry>
        </mxCell>
        <mxCell id="qR350ktHw3m1VdkChVLU-106" style="edgeStyle=orthogonalEdgeStyle;rounded=0;orthogonalLoop=1;jettySize=auto;html=1;entryX=1;entryY=0.5;entryDx=0;entryDy=0;" edge="1" parent="1" source="qR350ktHw3m1VdkChVLU-69" target="qR350ktHw3m1VdkChVLU-28">
          <mxGeometry relative="1" as="geometry">
            <Array as="points">
              <mxPoint x="2670" y="565" />
            </Array>
          </mxGeometry>
        </mxCell>
        <mxCell id="qR350ktHw3m1VdkChVLU-107" value="&amp;lt;&amp;lt;send&amp;gt;&amp;gt;" style="edgeLabel;html=1;align=center;verticalAlign=middle;resizable=0;points=[];" vertex="1" connectable="0" parent="qR350ktHw3m1VdkChVLU-106">
          <mxGeometry x="-0.3424" y="-2" relative="1" as="geometry">
            <mxPoint as="offset" />
          </mxGeometry>
        </mxCell>
        <mxCell id="qR350ktHw3m1VdkChVLU-69" value="&amp;lt;&amp;lt;artifact&amp;gt;&amp;gt;&lt;br&gt;Gestion de Contratos PDF" style="html=1;whiteSpace=wrap;" vertex="1" parent="1">
          <mxGeometry x="2610" y="738.44" width="120" height="50" as="geometry" />
        </mxCell>
        <mxCell id="qR350ktHw3m1VdkChVLU-87" style="edgeStyle=orthogonalEdgeStyle;rounded=0;orthogonalLoop=1;jettySize=auto;html=1;entryX=0;entryY=0;entryDx=0;entryDy=170;entryPerimeter=0;" edge="1" parent="1" source="qR350ktHw3m1VdkChVLU-44" target="qR350ktHw3m1VdkChVLU-57">
          <mxGeometry relative="1" as="geometry">
            <Array as="points">
              <mxPoint x="1440" y="640" />
              <mxPoint x="1990" y="640" />
            </Array>
          </mxGeometry>
        </mxCell>
        <mxCell id="qR350ktHw3m1VdkChVLU-88" value="&amp;lt;&amp;lt;share&amp;gt;&amp;gt;" style="edgeLabel;html=1;align=center;verticalAlign=middle;resizable=0;points=[];" vertex="1" connectable="0" parent="qR350ktHw3m1VdkChVLU-87">
          <mxGeometry x="0.1306" y="3" relative="1" as="geometry">
            <mxPoint x="1" as="offset" />
          </mxGeometry>
        </mxCell>
        <mxCell id="qR350ktHw3m1VdkChVLU-89" style="edgeStyle=orthogonalEdgeStyle;rounded=0;orthogonalLoop=1;jettySize=auto;html=1;entryX=0;entryY=0;entryDx=140;entryDy=260;entryPerimeter=0;" edge="1" parent="1" source="qR350ktHw3m1VdkChVLU-44" target="qR350ktHw3m1VdkChVLU-65">
          <mxGeometry relative="1" as="geometry">
            <Array as="points">
              <mxPoint x="1440" y="1040" />
              <mxPoint x="2490" y="1040" />
            </Array>
          </mxGeometry>
        </mxCell>
        <mxCell id="qR350ktHw3m1VdkChVLU-90" value="&amp;lt;&amp;lt;provide&amp;gt;&amp;gt;" style="edgeLabel;html=1;align=center;verticalAlign=middle;resizable=0;points=[];" vertex="1" connectable="0" parent="qR350ktHw3m1VdkChVLU-89">
          <mxGeometry x="0.0292" y="2" relative="1" as="geometry">
            <mxPoint x="1" as="offset" />
          </mxGeometry>
        </mxCell>
        <mxCell id="fhIq3zyXwHZGVhk65Qyr-6" value="Plataforma Web" style="verticalAlign=top;align=left;spacingTop=8;spacingLeft=2;spacingRight=12;shape=cube;size=10;direction=south;fontStyle=4;html=1;whiteSpace=wrap;" vertex="1" parent="1">
          <mxGeometry x="190" y="270" width="420" height="120" as="geometry" />
        </mxCell>
        <mxCell id="fhIq3zyXwHZGVhk65Qyr-7" value="&amp;lt;&amp;lt;artifact&amp;gt;&amp;gt;&lt;br&gt;Aplicación Cliente" style="html=1;whiteSpace=wrap;" vertex="1" parent="1">
          <mxGeometry x="210" y="305" width="110" height="50" as="geometry" />
        </mxCell>
        <mxCell id="fhIq3zyXwHZGVhk65Qyr-8" value="&amp;lt;&amp;lt;artifact&amp;gt;&amp;gt;&lt;br&gt;Aplicación Administrador" style="html=1;whiteSpace=wrap;" vertex="1" parent="1">
          <mxGeometry x="340" y="305" width="110" height="50" as="geometry" />
        </mxCell>
        <mxCell id="fhIq3zyXwHZGVhk65Qyr-9" value="&amp;lt;&amp;lt;artifact&amp;gt;&amp;gt;&lt;br&gt;Aplicación Usuario Sin Loguearse" style="html=1;whiteSpace=wrap;" vertex="1" parent="1">
          <mxGeometry x="480" y="305" width="110" height="50" as="geometry" />
        </mxCell>
        <mxCell id="fhIq3zyXwHZGVhk65Qyr-10" style="edgeStyle=orthogonalEdgeStyle;rounded=0;orthogonalLoop=1;jettySize=auto;html=1;entryX=0;entryY=0;entryDx=0;entryDy=205;entryPerimeter=0;" edge="1" parent="1" source="qR350ktHw3m1VdkChVLU-1" target="fhIq3zyXwHZGVhk65Qyr-6">
          <mxGeometry relative="1" as="geometry">
            <Array as="points">
              <mxPoint x="405" y="170" />
              <mxPoint x="405" y="170" />
            </Array>
          </mxGeometry>
        </mxCell>
        <mxCell id="fhIq3zyXwHZGVhk65Qyr-11" style="edgeStyle=orthogonalEdgeStyle;rounded=0;orthogonalLoop=1;jettySize=auto;html=1;entryX=0;entryY=0;entryDx=65;entryDy=180;entryPerimeter=0;exitX=-0.02;exitY=0.237;exitDx=0;exitDy=0;exitPerimeter=0;" edge="1" parent="1" source="fhIq3zyXwHZGVhk65Qyr-6" target="qR350ktHw3m1VdkChVLU-9">
          <mxGeometry relative="1" as="geometry">
            <Array as="points">
              <mxPoint x="511" y="190" />
              <mxPoint x="610" y="190" />
              <mxPoint x="610" y="85" />
            </Array>
          </mxGeometry>
        </mxCell>
        <mxCell id="fhIq3zyXwHZGVhk65Qyr-12" value="&amp;lt;&amp;lt;HTTP&amp;gt;&amp;gt;" style="edgeLabel;html=1;align=center;verticalAlign=middle;resizable=0;points=[];" connectable="0" vertex="1" parent="fhIq3zyXwHZGVhk65Qyr-11">
          <mxGeometry x="-0.1883" y="6" relative="1" as="geometry">
            <mxPoint as="offset" />
          </mxGeometry>
        </mxCell>
      </root>
    </mxGraphModel>
  </diagram>
</mxfile>
